<?xml version="1.0" encoding="UTF-8" standalone="no"?>
<svg
   width="8.4666672mm"
   height="8.9826155mm"
   viewBox="0 0 8.4666672 8.9826155"
   version="1.1"
   id="svg882"
   inkscape:version="1.1 (c68e22c387, 2021-05-23)"
   sodipodi:docname="favicon_32x32.svg"
   xmlns:inkscape="http://www.inkscape.org/namespaces/inkscape"
   xmlns:sodipodi="http://sodipodi.sourceforge.net/DTD/sodipodi-0.dtd"
   xmlns="http://www.w3.org/2000/svg"
   xmlns:svg="http://www.w3.org/2000/svg"
   xmlns:rdf="http://www.w3.org/1999/02/22-rdf-syntax-ns#"
   xmlns:cc="http://creativecommons.org/ns#"
   xmlns:dc="http://purl.org/dc/elements/1.1/">
  <defs
     id="defs876" />
  <sodipodi:namedview
     id="base"
     pagecolor="#ffffff"
     bordercolor="#666666"
     borderopacity="1.0"
     inkscape:pageopacity="0.0"
     inkscape:pageshadow="2"
     inkscape:zoom="7.9195959"
     inkscape:cx="29.610097"
     inkscape:cy="42.74208"
     inkscape:document-units="mm"
     inkscape:current-layer="layer1"
     inkscape:document-rotation="0"
     showgrid="false"
     inkscape:window-width="2560"
     inkscape:window-height="1377"
     inkscape:window-x="1912"
     inkscape:window-y="-8"
     inkscape:window-maximized="1"
     inkscape:pagecheckerboard="0" />
  <metadata
     id="metadata879">
    <rdf:RDF>
      <cc:Work
         rdf:about="">
        <dc:format>image/svg+xml</dc:format>
        <dc:type
           rdf:resource="http://purl.org/dc/dcmitype/StillImage" />
        <dc:title />
      </cc:Work>
    </rdf:RDF>
  </metadata>
  <g
     inkscape:label="Layer 1"
     inkscape:groupmode="layer"
     id="layer1"
     transform="translate(-64.962894,-68.851786)">
    <g
       id="g17"
       transform="matrix(0.17013679,0,0,0.17013679,53.910316,57.137564)">
      <path
         d="m 106.14991,95.597241 q 0,4.121534 -3.06626,6.311719 -3.04635,2.17028 -8.959858,2.17028 -5.395825,0 -8.462087,-1.91144 -3.066261,-1.91143 -3.942336,-5.794038 l 5.674575,-0.935807 q 0.577413,2.230008 2.24992,3.245459 1.672506,0.995539 4.639214,0.995539 6.152432,0 6.152432,-3.743228 0,-1.194648 -0.716785,-1.971169 -0.696878,-0.776521 -1.99108,-1.294201 -1.27429,-0.517681 -4.917965,-1.25438 -3.145905,-0.736699 -4.380374,-1.174737 -1.23447,-0.457948 -2.230009,-1.055272 -0.99554,-0.617234 -1.692417,-1.473398 -0.696878,-0.856165 -1.095094,-2.01099 -0.378305,-1.154826 -0.378305,-2.648136 0,-3.802961 2.847243,-5.813951 2.867154,-2.030901 8.322711,-2.030901 5.216628,0 7.824945,1.632685 2.62822,1.632685 3.38483,5.395825 l -5.694485,0.776521 q -0.438038,-1.811882 -1.791972,-2.727779 -1.334023,-0.915896 -3.842783,-0.915896 -5.336092,0 -5.336092,3.345013 0,1.095093 0.557502,1.791971 0.577413,0.696878 1.692418,1.194648 1.115004,0.477859 4.519749,1.214558 4.041891,0.856164 5.774133,1.592863 1.75215,0.716789 2.7676,1.692418 1.01545,0.955718 1.55304,2.309651 0.53759,1.334023 0.53759,3.086173 z"
         id="path13"
         style="font-weight:bold;font-size:40.7773px;line-height:1.25;font-family:'Liberation Sans';-inkscape-font-specification:'Liberation Sans, Bold';letter-spacing:0px;word-spacing:0px;fill:#4582ec;stroke-width:0.264583" />
      <circle
         style="fill:none;fill-opacity:0.412252;stroke:#000000;stroke-width:3.96875;stroke-linecap:square;stroke-miterlimit:5.5;stroke-dasharray:none"
         id="path841"
         cx="93.934608"
         cy="89.643951"
         r="18.807791" />
      <path
         style="fill:none;stroke:#000000;stroke-width:1.5875;stroke-linecap:round;stroke-linejoin:miter;stroke-miterlimit:5.5;stroke-dasharray:none;stroke-opacity:1"
         d="m 81.340778,105.2863 -6.572972,6.57297"
         id="path843" />
      <path
         style="fill:none;stroke:#000000;stroke-width:3.96875;stroke-linecap:round;stroke-linejoin:miter;stroke-miterlimit:5.5;stroke-dasharray:none;stroke-opacity:1"
         d="M 77.523592,109.08752 66.947269,119.66384"
         id="path838" />
    </g>
  </g>
</svg>
